<?xml version="1.0" standalone="no"?>
<!DOCTYPE svg PUBLIC "-//W3C//DTD SVG 20010904//EN"
 "http://www.w3.org/TR/2001/REC-SVG-20010904/DTD/svg10.dtd">
<svg version="1.0" xmlns="http://www.w3.org/2000/svg"
 width="1259.000000pt" height="1280.000000pt" viewBox="0 0 1259.000000 1280.000000"
 preserveAspectRatio="xMidYMid meet">
<metadata>
Created by potrace 1.15, written by Peter Selinger 2001-2017
</metadata>
<g transform="translate(0.000000,1280.000000) scale(0.100000,-0.100000)"
fill="#000000" stroke="none">
<path d="M3380 12794 c-122 -9 -353 -47 -487 -79 -384 -94 -744 -272 -1063
-525 -185 -147 -428 -403 -587 -620 -445 -608 -779 -1451 -987 -2490 -158
-789 -238 -1620 -253 -2623 l-6 -448 104 4 c57 2 507 10 1000 17 l897 14 7
210 c43 1361 316 2728 705 3531 202 417 427 677 666 772 63 25 81 27 199 27
158 0 230 -16 370 -84 510 -247 862 -1044 1029 -2330 25 -193 59 -546 71 -730
3 -52 8 -122 11 -155 l5 -60 -393 -3 -393 -3 -137 -137 -138 -137 0 -525 c0
-289 -5 -950 -10 -1470 -20 -1932 -30 -2938 -36 -3788 l-7 -873 143 -144 144
-144 4040 5 4041 5 135 135 135 134 -3 3333 -4 3332 -136 138 -137 137 -2632
0 -2633 0 0 43 c0 64 -28 593 -40 752 -85 1137 -253 1980 -541 2705 -331 836
-823 1429 -1463 1761 -293 152 -611 248 -976 294 -120 16 -524 27 -640 19z"/>
</g>
</svg>
